<svg xmlns="http://www.w3.org/2000/svg" data-name="Слой 1" viewBox="0 0 100 125" x="0px" y="0px"><title>cactus</title><path d="M67.72817,55.23979c0.3119,0.41357.45237,0.61082,0.60467,0.79848,0.13242,0.16315.27821,0.31545,0.4181,0.47255l-0.11271.1735L67.19818,55.859a2.4054,2.4054,0,0,0-.89764.93379,9.49115,9.49115,0,0,0,.43166,1.52228c-0.237-.21025-0.46307-0.43485-0.71435-0.62636-0.21412-.16318-0.45725-0.28829-0.68755-0.43025a2.98955,2.98955,0,0,0-.47663.87992,14.595,14.595,0,0,0-.0742,1.78346l-0.2171-.00019-0.62074-1.54833c-1.59307.80878-3.13448,1.59373-4.67817,2.37415a3.72135,3.72135,0,0,0-1.615,2.22129,0.71377,0.71377,0,0,0,.42675.45435,6.31709,6.31709,0,0,0,1.152.05568l0.02724,0.3428a7.27964,7.27964,0,0,0-1.22446.1805,0.93709,0.93709,0,0,0-.60834.5059c-0.193,2.09983-.35925,4.20327-0.46939,6.30905-0.04966.94949,0.04268,1.90641,0.07682,3.073l3.00405-.42451c-0.80318.56253-1.48849,1.21354-2.57672,0.9741l0.12783-.386-0.1932-.03048L57.3609,75.03135l1.83735,0.34341-0.0394.32631a2.8256,2.8256,0,0,0-.89079.03719,1.308,1.308,0,0,0-.76213.57718,0.78759,0.78759,0,0,0,.56489,1.10182c0.43089,0.11893.86637,0.22124,1.29981,0.331l-0.01825.25-1.82677.05408c-0.02173.72833-.09148,1.471-0.05549,2.20853q0.09752,1.99813.31271,3.98948a3.16881,3.16881,0,0,0,.44623.93116c-0.529.28563-.38265,1.21306,0.42837,1.79293l-0.63064.36234,0.01408,0.21764c0.39541,0.0118.79163,0.01155,1.186,0.03811,0.647,0.04359,1.2929.1454,1.93915,0.14448,0.46489-.00067,1.02856.36,1.39418-0.26614a0.61443,0.61443,0,0,1,.38449.14416,1.21205,1.21205,0,0,0,1.5396.5425,11.945,11.945,0,0,1,1.27768-.48668,4.64283,4.64283,0,0,1,.9884-0.0398c-0.409,1.18082-1.91626.55167-2.13558,1.51171L61.899,89.984l-0.02257.25846a1.22646,1.22646,0,0,0,.59985.21894c0.42077-.16086,1.09087.02431,1.14773-0.61643a6.93275,6.93275,0,0,0,1.879-.175c1.19508-.45864,1.39131-0.49862,2.32881.39422-1.10264.44253-2.42513-.06077-3.22737,1.0786l3.67544-.88144,0.361,0.66524c0.58761-.30618,1.41029.18593,1.83054-0.67582a1.88186,1.88186,0,0,1,.87637.1597,0.57984,0.57984,0,0,1,.26083.39785,1.28121,1.28121,0,0,1-.53232.4179,20.41152,20.41152,0,0,0-2.796,1.121l3.29824-.21c-0.00367.96806-.937,0.65644-1.25529,1.20532,0.86162-.05442,1.70593-0.09127,2.5469-0.16583,0.72458-.06427.7229-0.08327,0.83838,0.62418,0.578,0.35759,1.67861-.36781,1.81921.711a3.22516,3.22516,0,0,1,.82018.5584,11.503,11.503,0,0,1-.66614,1.55858l-0.26347-.1015,0.02415-.80934a1.64284,1.64284,0,0,1-2.308-.3658,2.86444,2.86444,0,0,0-1.50719-.14355,2.686,2.686,0,0,1-.39338.04741c-0.29525-.06692-0.58141-0.17395-0.87123-0.26484l0.38426-.80861c-1.346.08773-2.82944,1.11254-4.35138-.20951L65.65258,93.951l-0.00635-.17111,0.58-.1936-0.02615-.23919a14.56339,14.56339,0,0,0-2.53074-.03591,4.037,4.037,0,0,0-1.41956.83466c-0.46674.31558-.78869,0.1646-1.204-0.31834l1.05857,0.03158L60.82623,92.806l-0.01509.50579c-1.23618-.20855-2.63041.426-3.58965-0.7419l0.01757-.31083,1.39676-.19978,0.03326,0.15655-0.7218.2358,0.00113,0.14284L60.086,92.65825l-0.03736-.77606-2.25417-.3157,0.77657-.22523-0.03724-.16034a2.611,2.611,0,0,0-.63132.14085,6.55306,6.55306,0,0,1-4.23618.28341,3.85793,3.85793,0,0,0-1.19983.02272c-1.14031.05219-2.28021,0.11386-3.42073,0.16054-0.84194.03446-1.68463,0.07168-2.52693,0.07035a25.02083,25.02083,0,0,1-2.66765-.14453c1.48215-.42215,3.12078.0699,4.55745-0.63415a3.07209,3.07209,0,0,0-2.61308-.1404,2.82732,2.82732,0,0,1-2.16372-.15646,4.539,4.539,0,0,0-2.42639.04975c-1.43638.31879-2.837,0.7977-4.25456,1.20282A0.75585,0.75585,0,0,1,35.80726,91.6l1.59151-.82083-0.08342-.28281c-1.21849.264-2.4366,0.52974-3.65593,0.78978-0.16828.03589-.343,0.04095-0.5141,0.06451a1.58152,1.58152,0,0,0-.588.09926,1.51689,1.51689,0,0,1-1.83085-.00535,0.68025,0.68025,0,0,0-.53662.00673,20.68,20.68,0,0,1-2.2868.90714,3.01572,3.01572,0,0,1-1.27122-.4423l0.86785-.71823c-0.61607-.51109-1.18717-1.04546-1.81982-1.49278-0.639-.4518-1.33894-0.81731-2.02864-1.23047a27.9131,27.9131,0,0,0,3.62586.07351c1.16243-.11924,2.39433.64347,3.47414-0.22147a3.29438,3.29438,0,0,0,4.0569-.2096l0.151,0.81829a11.49389,11.49389,0,0,0,1.35625.021,1.09544,1.09544,0,0,0,.40318-0.392,2.18955,2.18955,0,0,0-.45874-0.29744,3.91647,3.91647,0,0,1-1.06006-.4379c0.31814-.16118.64323-0.31033,0.95163-0.48839a3.67265,3.67265,0,0,0,.4554-0.36487,1.77017,1.77017,0,0,0-.55834-0.25569c-0.44811-.03112-0.90087.00464-1.48159,0.01582,0.59338-.88154,1.33744-0.42451,2.007-0.503l0.04354-1.4592-1.71491.1375-0.05815-.3205a7.87555,7.87555,0,0,1,1.28182-.27749,0.62216,0.62216,0,0,0,.67273-0.71876c-0.03472-1.3818-.0999-2.76285-0.15476-4.17963l-1.61749.62249-0.145-.31369a8.84266,8.84266,0,0,1,.841-0.43962c1.061-.42259,1.07315-0.432.8542-1.65119l-1.72879.30164-0.08976-.311A7.32569,7.32569,0,0,1,35.71361,77.26a0.86447,0.86447,0,0,0,.71039-1.37546c-0.50134-.214-1.16579.409-1.75086-0.38979a9.64813,9.64813,0,0,1,1.07779-.12876,0.763,0.763,0,0,0,.88661-0.88056c-0.03021-1.49436-.08512-2.98883-0.0775-4.483a10.37775,10.37775,0,0,1,.239-1.64666,0.90037,0.90037,0,0,0-.83084-0.93663c-0.45114.04511-.89736,0.16033-1.34832,0.17766a2.33347,2.33347,0,0,1-.7018-0.20071l0.04162-.25446c0.5169-.03241,1.034-0.06214,1.55067-0.09776,1.11881-.07714,1.17662-0.15948.94191-1.46675l-1.80016.41855-0.1158-.28035,1.98039-.87723,0.0342-1.14622-2.64894.92672L33.7873,64.298c0.69243-.29648,1.3746-0.62118,2.08134-0.87833a0.74868,0.74868,0,0,0,.64765-0.76708c0.036-2.05664.11194-4.11259,0.17457-6.21143l-1.81943.30845L34.8086,56.451c0.38661-.16348.77756-0.3176,1.158-0.4944a1.0202,1.0202,0,0,0,.5228-0.339,1.83365,1.83365,0,0,0,.0722-0.90255,0.84374,0.84374,0,0,0-.60483-0.11217,14.42545,14.42545,0,0,1-1.42248.37767c0.36155-.83149,1.50272-0.65668,1.96587-1.50083l-1.69828.19771-0.10641-.23915a3.70823,3.70823,0,0,1,.79623-0.36695c0.99406-.19975,1.19534-0.45939,1.09066-1.59985-0.06024.09928-.09489,0.16035-0.13357,0.21876-0.02639.03984-.05841,0.076-0.22361,0.28756a18.258,18.258,0,0,0,.03791-2.12644,1.42369,1.42369,0,0,0-.52277-0.77556,3.21413,3.21413,0,0,0-.901-0.52055,5.44434,5.44434,0,0,0-2.62642-.67845,1.39323,1.39323,0,0,1-.8177-0.42644c-0.74662-.63037-1.45388-1.3428-2.54824-0.37241l-0.05523-.24428,0.51793-.71528c-0.43155-.53149-0.85574-0.7543-1.45706-0.19981a3.71292,3.71292,0,0,1-1.22123.70219c0.24428-.89806,1.21745-0.94916,1.73634-1.515-0.35579-.58989-0.40952-0.61613-1.3734-0.19776a13.85342,13.85342,0,0,0-1.30891.73648l-0.1897-.29982c0.67089-.433,1.354-0.84875,2.0039-1.31125a0.7115,0.7115,0,0,0,.28988-0.56776,15.85514,15.85514,0,0,1-.91384-6.578c0.034-.59693-0.28-0.59534-0.72453-0.33832a5.22656,5.22656,0,0,1-1.46377.5843c0.37515-.97595,1.73641-0.58208,2.227-1.73269a4.03171,4.03171,0,0,1-2.61006.09557l-0.01257-.28691c0.61279-.06177,1.22458-0.15694,1.83866-0.175,0.51765-.01527.76779-0.20817,0.67731-0.73207-0.1881-1.08909-.38963-2.17587-0.60291-3.35942a6.9347,6.9347,0,0,1-.95734.48821,1.44877,1.44877,0,0,1-.56814-0.06292,2.17992,2.17992,0,0,1,.37381-0.384c0.317-.19731.65648-0.35836,0.98676-0.53425l-0.07473-.2296-1.743-.052L24.162,29.93509a12.10788,12.10788,0,0,1,1.17565-.37283c0.935-.19954.95148-0.20889,0.69852-0.78717,0.56008-1.10571,1.06013-2.03123,1.50119-2.98405,0.32655-.70543.5458-1.46024,0.867-2.1685a3.34116,3.34116,0,0,1,3.04464-2.057,4.41036,4.41036,0,0,1,4.06649,3.47364c0.35322,2.47085.58946,4.95829,0.93278,7.43073a23.28583,23.28583,0,0,0,.65346,2.82618,1.68537,1.68537,0,0,0,.44746.52568c1.48-.78556,1.22766-1.98112.83036-3.26721l-0.74814.04256a1.43647,1.43647,0,0,1,.24316-0.52355c0.74784-.534.58929-0.83861-0.22276-1.01825a0.32022,0.32022,0,0,1-.12472-0.09217,0.53,0.53,0,0,1-.05714-0.121c0.9806-.70849.52108-1.80747,0.5473-2.71241,0.02355-.81271.61576-1.91212-0.50592-2.56233l0.376-1.06763L36.15408,24.368c0.67249-.19262,1.18424-0.30545,1.66672-0.49341a1.93607,1.93607,0,0,0,.51381-0.48251,1.55036,1.55036,0,0,0-.54668-0.467,12.54705,12.54705,0,0,0-1.601-.06931,0.78849,0.78849,0,0,1,1.00185-.54337c1.18475,0.09757,1.22911.06168,1.18539-1.10193-0.03332-.88689-0.10521-1.7776-0.05553-2.66074A24.12,24.12,0,0,1,38.694,16.1423l-2.87068-.08565,0.00846-.29865c0.36139,0.01078.72272,0.02436,1.08418,0.03157a3.73687,3.73687,0,0,0,1.11545-.01363,1.02519,1.02519,0,0,0,.64452-0.614c0.20423-1.26286.29578-2.54374,0.49071-3.80847a6.05778,6.05778,0,0,0,.47578-0.85169,1.227,1.227,0,0,1,.36782-1.02966,0.983,0.983,0,0,0,.12484-0.69381,4.77062,4.77062,0,0,0-1.12914-.46262,0.79445,0.79445,0,0,0-.36107.11751c-0.03015-.6624.85523-0.81322,1.68482-0.34124,0.20717,0.11786.39841,0.26371,0.65886,0.43814l1.38687-1.738,0.03516-1.17848,0.77,0.41746c1.053-.57123,2.17693-1.19392,3.31822-1.783a0.70027,0.70027,0,0,1,.54883.07874c0.59671,0.33219,1.16057.98083,1.79413,0.03059a1.73378,1.73378,0,0,1,.65619.09866l0.87562-1.085L50.3398,4.50258l2.65466,1.48309,0.89611-.42378-0.47233,1.0537L54.813,9.1067l3.23576-.75845,0.06205,0.22359a8.45394,8.45394,0,0,1-3.24019.9747l1.41321,3.24258,3.618-1.473,0.13632,0.30761-3.60629,1.84385L56.507,13.62865l2.49981-.54779L59.0742,13.305l-2.00918.79261,2.77785,1.11828a2.67942,2.67942,0,0,1-3.0634-1.4855l-0.23365,7.83087,2.13384-.46221,0.064,0.24777a8.74509,8.74509,0,0,1-1.68924.65953c-0.64214.11276-.58316,0.51251-0.59523,0.93361-0.01576.54963,0.4,0.45937,0.73794,0.4885a1.13462,1.13462,0,0,1,.26317.11024,3.00146,3.00146,0,0,0-.95.64774A3.67261,3.67261,0,0,0,56.32278,25.46l0.43238-.56483-0.3511,4.689,1.4295-.37535,0.10069,0.23667a5.76744,5.76744,0,0,0-.91078.49854,3.42157,3.42157,0,0,0-.524.68044c0.24829,0.09193.49361,0.19344,0.74615,0.27166a0.85192,0.85192,0,0,1,.45131.20761c-0.24.10676-.48081,0.2119-0.72,0.32059-0.53472.243-.58536,0.55748-0.07246,0.84466a12.2588,12.2588,0,0,0,1.51813.61488l-0.0421.21736-1.749-.19918L56.48119,37.94l1.13348-.4275L57.712,37.62332l-1.30559,1.32474,1.49755-.06082,0.12777,0.22426c-0.93156.31087-1.98272,0.52436-1.66647,1.88661l0.9709,0.15975a0.48958,0.48958,0,0,1-.03083.13042c-1.04277.05675-1.25851,0.5439-1.05213,1.55759,0.25923,1.27324.26329,2.59673,0.41824,3.89367a0.923,0.923,0,0,0,1.08449.91131,3.844,3.844,0,0,0,.84.18128,2.44269,2.44269,0,0,0,.98285-0.885,15.92387,15.92387,0,0,0,1.973-4.758c0.1786-.91.2531-1.84039,0.39139-2.889l-2.55405-.20855c0.25233-.619.847-0.70035,2.25922-0.18519l0.02489-.834-1.115-.13076-0.07072-.15168a0.86386,0.86386,0,0,1,.40361-0.20564c0.59417,0.19218.58881-.21138,0.68037-0.594A30.80844,30.80844,0,0,1,62.54686,33.3a4.93637,4.93637,0,0,1,1.28938-1.35309l-0.15-.17539-0.78239.70378L63.3316,31.4134l-1.86509-1.19708,0.0569-.25908a2.942,2.942,0,0,1,.7641.11755,4.51788,4.51788,0,0,1,.871.54915,1.0664,1.0664,0,0,0,1.70967-.205c0.25641-.34327.47634-0.709,0.9579-0.12895a2.38291,2.38291,0,0,0,1.15354.27829l0.728-1.29838,0.26284,0.07839a10.15288,10.15288,0,0,1-.20708,1.10181c-0.14641.49092-.12945,0.55895,0.4892,0.74542,1.10095,0.33184,1.48935-.50033,2.16458-0.86632,0.36962-.20035.71633-0.44294,1.07337-0.66648l0.141,0.20833a9.20136,9.20136,0,0,0-1.32593,1.20988,2.09531,2.09531,0,0,0,.05459,1.04758c0.76426-.25334,1.2327-0.99837,2.03109-0.56932-0.52622.7-1.92711,0.46261-1.84262,1.80983l1.1695,0.09286,0.0469,0.18642-1.04485.33371,0.64909,2.98769,2.32283-.10415c-0.69881.83389-2.07679,0.309-2.13783,1.65332l1.64889,0.36076,0.00284,0.19464-1.59057.18847,0.10011,1.25747L73.541,40.82461l-0.03023.27862-1.70871-.051-0.162,5.43094,2.82218-.52975,0.06388,0.222L71.288,47.2312l0.07911,0.23507c0.80555,0.0316,1.67047-.49064,2.45233.23165l-2.64952.41464-0.37691,1.849,2.38626,0.366-0.03228.27907-2.53133-.07553a3.2122,3.2122,0,0,1-.12908,1.10589c-0.14326.26739-.02577,0.85364-0.66491,0.753a0.90234,0.90234,0,0,0-.38678.44617,3.93222,3.93222,0,0,0-.26049.637c-0.21107.58266-1.11093,1.05113-.07064,1.80768ZM56.671,60.50624c-0.12486.30714-.098,0.65065,0.28392,0.5646a2.40363,2.40363,0,0,0,.79131-0.64823l-0.14611-.13919-0.94486.23749c-0.28517-.46818-0.69589-0.24591-1.01356-0.11177a1.44346,1.44346,0,0,0-.38245.60088l0.16032,0.08606,0.41879-.63811,0.15594,0.06742-0.07344.63416C56.192,60.9234,56.43158,60.71477,56.671,60.50624ZM50.30806,29.2616l0.71183,0.11508,0.18081-1.15047L50.87314,28.139q-0.27452.57093-.54934,1.14145c-0.23455-.23966-0.511-0.74093-0.82885-0.31332-0.52061.70036,0.64049,0.4872,0.71951,0.97488ZM48.80439,8.675l0.34806-1.09061-0.1623-.149-0.87937.64606,0.71169,0.57844a1.54879,1.54879,0,0,0-.057,2.09184L49.621,9.11628C49.35862,8.97466,49.08132,8.825,48.80439,8.675ZM53.15478,19.92l-0.745-.4977-0.261,2.44729c0.7783-.02028.81309-0.474,0.82227-0.99326a5.83752,5.83752,0,0,1,.17349-0.97321l0.27553,1.27524,0.13812,0.01272,0.17883-2.22657L53.57345,18.931Zm8.32261,30.394,0.689-.69757-0.11177-.60544-1.25757,1.52278,0.69672-.2348c-0.24433.273-.48015,0.5543-0.7359,0.81612a1.92251,1.92251,0,0,0-.55806.51509c-0.16544.61145-.23033,1.25012-0.33453,1.87814L60.061,53.5867a2.7304,2.7304,0,0,1,.6765-1.25921c1.09519-.2419,1.04351-1.14738,1.3886-1.86426C61.87831,50.40628,61.67769,50.36017,61.47738,50.31395Zm4.01974-16.18142a5.7592,5.7592,0,0,1,.3101-0.681c0.29695-.48283.6188-0.95033,0.93055-1.42406l-0.166-.21831a2.534,2.534,0,0,0-1.13666.52459,1.619,1.619,0,0,0,.0702,1.78727,13.65949,13.65949,0,0,0-.57018,1.90918,18.11207,18.11207,0,0,0-.08628,2.20442l0.26629,0.03608,1.12528-4.46866C65.8849,33.96073,65.69032,34.04755,65.49713,34.13252ZM54.76121,54.39785l-0.90459-.5192a1.58332,1.58332,0,0,0-.52122.644c-0.03378.82781,0.04894,1.66038,0.08895,2.52247,1.08779-.22205.92235-1.0673,1.00817-1.80407a3.6511,3.6511,0,0,1,.32938-0.86047l0.074,1.97712c0.90632-.04246,1.26218-1.37114.91942-3.2711A1.12166,1.12166,0,0,0,54.76121,54.39785ZM51.27428,41.30168c-0.2283-.29544-0.04253-0.99735-0.67481-0.86921a11.93265,11.93265,0,0,0-1.74162.59649c0.05062,0.451.074,0.733,0.11605,1.01217,0.03855,0.25609.09722,0.50915,0.147,0.76355L48.694,44.329l-0.34574-2.80758-0.83661.74008a0.41664,0.41664,0,0,1-.02307-0.39412,1.16488,1.16488,0,0,0,.0149-1.69027,0.81277,0.81277,0,0,1,.01452-0.42348c0.14465,0.05272.2925,0.09828,0.43273,0.1609a2.84337,2.84337,0,0,1,.32645.22162l-0.30592-.77157,0.77-.12083-0.96694-.60945,0.74063-.24546,0.13536-4.53657-0.97344.775L48.621,32.62342a2.99759,2.99759,0,0,1-.95065-0.94969,0.98455,0.98455,0,0,1,1.033-1.219l-0.52018-.74526,0.21161,0.00463c0.06333-.48651.13048-0.97257,0.189-1.45966,0.076-.6323-0.24855-1.37387.50249-1.81866,0.46363,0.83442-.02483,1.60215-0.29527,2.4401,0.97052-.35.96191-0.351,1.06408-1.20056a2.21017,2.21017,0,0,1,.20118-0.5128l0.43378-.50068,0.202,0.96433,0.31476-.02052,0.12106-1.421-1.02671.05814-0.02794.93631-0.45071-1.892a2.91545,2.91545,0,0,0,1.25406.18936,4.15141,4.15141,0,0,0,.40508-1.44123l0.33541,0.84261c0.47457-1.13562.37751-1.54639-.49791-1.8709,0.07093-.67457.14466-1.37585,0.22012-2.08032l0.49651,1.13,0.14848-1.76748-0.22652-.04448-0.42825.70167q-0.13083-.20278-0.26244-0.4051l0.44545-1.06231,0.391,0.08257,0.16235-.86386,0.15359,0.19057a1.67158,1.67158,0,0,0,.5709-0.17868c0.0277-.5321-0.01539-1.06789-0.03612-1.59313-1.8123-.02864-2.43363,1.34552-2.05271,2.91483a1.62258,1.62258,0,0,0,.3814.49566,1.31784,1.31784,0,0,0-.41363,1.06042c-0.02754.76142,0.44845,1.62473-.24051,2.3253a0.20466,0.20466,0,0,0,.05041.16468c0.40552,0.41332.15356,0.70735-.17532,1.04438l-1.043-.65862-0.1646,1.99115-0.20072-1.07762a1.03521,1.03521,0,0,1-.46351-0.16614c-0.1191-.5867-0.4826-0.52615-0.91071-0.424a3.18568,3.18568,0,0,1-.63795.02553l-0.05284-.19525,1.34418-.76222-1.49828-.68157c0.54727-.59149,1.13721-0.04663,1.71024-0.10782,0.02759-.92459.088-1.85513,0.069-2.784-0.00923-.44871-0.19644-0.89088-0.25169-1.3423-0.0644-.52618.11773-1.35154-0.14757-1.52432a3.15263,3.15263,0,0,1-.77067-1.27147l-0.63451,1.34958-0.4416-.36746,0.75624-1.38578-1.122-.03348-0.05139-.28386,1.76678-.49919a3.452,3.452,0,0,0-2.12451-1.19039c0.74049-.60956,1.381-0.02123,2.06781.09744a2.3175,2.3175,0,0,0,.06877-0.40773c-0.02374-1.30279-.06631-2.60531-0.08087-3.90817-0.01426-1.2761-.62021-1.72564-1.73932-1.2634a2.38373,2.38373,0,0,0,.4791-0.60112,8.78733,8.78733,0,0,0,.26506-1.20831,1.71054,1.71054,0,0,0-.84211-0.09085,5.14888,5.14888,0,0,0-.94851.8601c0.7321,0.45667-.16212.571-0.23512,0.99357l0.72391,0.07878a0.95717,0.95717,0,0,0-.82121,1.21373,1.52527,1.52527,0,0,1-.178.935c-0.74419,1.526-.07335,3.07291-0.27933,4.60261l0.24917,0.061L45.079,13.84464c0.24344,1.19946-1.0346,2.27832.04234,3.33949l-0.95381-.20554c-0.73091,1.1878-.98578,4.88592-0.38227,5.82643l-0.03082-.82687a1.99369,1.99369,0,0,1,.59382.5944c-0.13545.78972,0.52919,1.136,0.98823,1.73665a10.50684,10.50684,0,0,0-1.39034.11823,0.73044,0.73044,0,0,0-.50374.42182c-0.082,1.50431-.11212,3.01145-0.15751,4.53274,1.39006-.23963.48812,0.90572,0.85585,1.46105l0.83385-1.47488,0.2835,0.12016-0.41435,1.31,1.29172,0.33209c-2.607.50849-2.607,0.50849-2.44029,2.286L43.0137,32.905l0.1546,6.00786c0.81885-1.20581.81885-1.20581,1.33978-1.02016-1.21618,2.06565-1.21618,2.06565-.58593,2.42064L43.25,40.58406c0.5329,0.60729.13716,1.128,0.05438,1.7099a24.77871,24.77871,0,0,0,.00614,3.81953l0.58587-.30224-0.16463,1.25711,1.28893-.41643,0.097,0.18545a4.84283,4.84283,0,0,1-1.05276.53789,0.82928,0.82928,0,0,0-.7481.86531c-0.0477,1.24194-.1097,2.48337-0.14943,3.72554-0.01364.42632,0.02179,0.85422,0.0348,1.2814,0.36787-.71953.36787-0.71953,0.87941-0.462-0.369.43824-.93653,0.90352,0.10576,1.21575l-0.38017.4208,1.3236,0.82117-0.10317.235-1.53959-.3936-0.19233.97649-0.12563.01118-0.21026-.7556-0.262,2.54352-0.26207-.02956,0.045-1.50981-0.1481-.02856-0.607,1.59949c-0.54823-.40647-0.19787-0.99522-0.08066-1.47322a7.52181,7.52181,0,0,1,.76429-1.5089l-2.203.1051,0.4584-.85241c0.40419,0.01206.776,0.01936,1.14738,0.03522,0.44019,0.01879.75335-.04048,0.7507-0.62264q-0.00984-2.16037.07665-4.32079a1.2384,1.2384,0,0,0-1.33386-1.37812,2.445,2.445,0,0,1-.54743-0.23328c0.40472-.48105.61086-1.0492,1.37939-0.86693,0.44951,0.10662.569-.1871,0.56007-0.63477-0.02068-1.03979.04414-2.081,0.04286-3.12157-0.0008-.65172-0.05871-1.30338-0.09813-2.0989l-1.64674,1.70533-0.1408-.10118,1.2386-1.90776c-1.31327.13544-2.5873,0.0614-3.55223,1.08186l2.28467-.76106a1.028,1.028,0,0,1-.11442.35634,6.06675,6.06675,0,0,1-3.89991,1.04076c-0.61743-.08058-1.2468-0.34913-1.56939.5185L35.2,41.99591l-0.71182.82195c-0.23205-.55428.18849-1.37591-0.84558-1.32387L33.381,42.9329l-1.96915-6.96806L30.13994,37.0409l-0.201-.148c0.45871-.97171.93817-1.93429,1.37043-2.91762,0.45429-1.03346-.21638-1.99164-0.27924-2.99966L29.749,31.0299l-0.05-.30109a3.86131,3.86131,0,0,1,.602-0.28072c1.03012-.28422,1.051-0.31015.79513-1.43171l-0.72767-.02171a0.92822,0.92822,0,0,1,.16367-0.39876c0.81824-.27589.684-0.89582,0.60056-1.52445a5.59046,5.59046,0,0,1,.01366-0.88735c0.026-.89517.05317-1.7903,0.08007-2.692A3.04894,3.04894,0,0,0,28.643,25.556a11.77749,11.77749,0,0,0-.34653,1.64349,1.293,1.293,0,0,0,.34213.7102,2.42666,2.42666,0,0,0,.56469.38373,8.76608,8.76608,0,0,0-.9061.18029c-0.476.15373-.4312,0.47286-0.03319,0.7098L27.53979,32.5062l0.23678,0.05187,0.17614-.75492a1.46632,1.46632,0,0,1,.114.783,16.49883,16.49883,0,0,0-.1973,2.96349c0.24285,2.18344.67709,4.34483,0.98678,6.52184a4.828,4.828,0,0,0,2.58626,3.39793c1.05013,0.6553,2.26242,1.04508,3.37025,1.61581a14.027,14.027,0,0,1,1.75593,1.16592,9.11139,9.11139,0,0,1,.81755.76052l0.43442-1.6287a1.70992,1.70992,0,0,1,.23046.39253c0.03825,1.09153.05985,2.18369,0.10453,3.27491,0.0153,0.37348.12817,0.74636,0.11487,1.11659-0.012.33342-.21522,0.66795-0.19433,0.993,0.0526,0.81837.24205,1.62976,0.26909,2.44749,0.03286,0.99363-.04456,1.9909-0.07427,2.9866l0.17167,0.01685,0.40555-1.88262a0.442,0.442,0,0,1,.09289.33938,38.49527,38.49527,0,0,0-.25262,5.47186c0.13307,1.52656-.26432,2.9726-0.20668,4.47166,0.0499,1.29765-.16639,2.60446-0.24389,3.90847-0.04723.79478-.06889,1.59181-0.07616,2.38806-0.01,1.1.00431,2.20014,0.00846,3.36836a0.446,0.446,0,0,0-.204.24754,9.43006,9.43006,0,0,0-.01925,1.28529c0.04652,1.2811.08024,2.56352,0.16948,3.84191,0.05844,0.83719.20618,1.668,0.30923,2.50232a0.72086,0.72086,0,0,1-.01069.31133c-0.41678,1.2072.41579,2.18125,0.56289,3.30211a6.04883,6.04883,0,0,1,2.15414-3.641c-0.34332-.49832-1.25639-0.61451-0.92772-1.49641a10.60852,10.60852,0,0,0,1.13628.27568,0.94287,0.94287,0,0,0,1.17771-1.021,7.72582,7.72582,0,0,1-.07056-2.12573c-0.04228-.616-0.10583-1.23151-0.12029-1.84817-0.02719-1.15953-.615-1.66527-1.9018-1.52508l-0.40693,2.69933,0.95425-.33226,0.1137,0.239a2.64935,2.64935,0,0,1-.93794.421,0.88378,0.88378,0,0,1-.45568-0.69715,27.49146,27.49146,0,0,1,.49716-3.07442,2.91752,2.91752,0,0,1,.57579-0.86236l0.18888,0.08827L40.924,76.2997l1.31559-.72351,0.03209-1.07559-1.35038.19535a2.22274,2.22274,0,0,1,.615-0.7152c0.87384,0.16124.91722-.50751,0.87442-0.9676-0.14573-1.5667.45532-3.13718-.0503-4.69245a2.65413,2.65413,0,0,1-.27079-0.83834c0.59479-.455-0.13691-0.66742-0.12584-0.9831l-0.62289.54613-0.10044-.11412,0.44087-.98288c-0.70791-.14763-1.31478-0.24433-1.89963-0.416a1.218,1.218,0,0,1-.3654-0.49081,2.819,2.819,0,0,1,.6232-0.04785c0.68959,0.098,1.37486.22641,2.17284,0.36211-0.04758-.81541-0.10349-1.42373-0.1131-2.03279-0.01038-.65756.02252-1.31579,0.03654-1.97372l0.19337-.10715a9.20146,9.20146,0,0,0,.22272,1.171,1.69972,1.69972,0,0,0,.50235.46063l0.18816-6.30612,0.18493-.00111,0.04723,6.81987,0.93963-.44431c-0.39169,1.00492-1.27854,2.021.71819,2.40185l-1.72474.76615-0.47936,7.47065,0.32447,0.2012,1.21218-.81054c-0.492,1.0359.27779,0.8304,0.675,1.00564,0.29864,0.13175.59426,0.27037,0.89122,0.40594l-0.10762.19947c-1.49407-.18826-1.49407-0.18826-2.265.58595l-0.16823-.847c-0.62625.63-.54793,0.936,0.2386,1.28553L43.559,76.643l0.74289,0.02217c-1.24412.383-1.24212,1.2558-.97766,2.27206a3.43292,3.43292,0,0,1,.01541.8854c-0.01124.86041-.20431,1.76917,0.52418,2.27814l1.139-.22125c0.05411,0.31994.11081,0.63951,0.15686,0.9606a0.27885,0.27885,0,0,1-.105.08145l-0.18182-.64747c-1.1877.92743-1.43914,1.875-.78214,2.36963-0.30739,1.18889-1.18079,2.22817-.54911,3.62072,1.11844-.12028,2.27-0.29158,3.42758-0.35523a10.58238,10.58238,0,0,0,3.45218-.331l-0.172-.4231a2.087,2.087,0,0,0,.99688-0.31741c0.49838-.98124.67861-0.38228,0.96363,0.24438a2.98364,2.98364,0,0,0,.38534-0.52711,5.01779,5.01779,0,0,0-.70469-0.57753l0.09948-.44871-1.02982.4714-0.05235-.114,1.961-1.87525-0.16183-.22446-2.92385,1.75569a4.75287,4.75287,0,0,1,1.386-2.03071L51.57342,83.776c0.24773-.49067.438-0.95131,0.70169-1.36515,0.24145-.37893.61232-0.67854,0.83464-1.06566a0.81261,0.81261,0,0,0-.1956-1.25569,2.81062,2.81062,0,0,1-.74687.7918,3.35869,3.35869,0,0,0-1.51749,1.56723,2.57865,2.57865,0,0,0-.09115.91737c-1.09918.45351-.8468,1.87807-1.56,2.79478l0.04546-1.52346L48.81557,84.613a4.57783,4.57783,0,0,1-.19523.86295,1.05228,1.05228,0,0,1-.42774.28079,17.06881,17.06881,0,0,1-1.1156-1.99224,1.04231,1.04231,0,0,1,.56133-0.79273,0.97987,0.97987,0,0,0,.63708-1.30331l-1.588,1.10109-0.19762-.22894,1.79-2.35752a6.62094,6.62094,0,0,1-.629-3.187c-0.77652-.12459-1.56134-0.23374-2.33612-0.392a1.33177,1.33177,0,0,1-.3584-0.499l1.23845-.56963,0.08352,0.147-0.24455.45768,0.989-.12623-0.65586-2.28,0.23239-.09429,1.061,1.36626,0.22075-.07729,0.07958-2.66709,0.29763-.01557,0.19937,1.8517a1.27048,1.27048,0,0,0,.33962-0.59986,4.84727,4.84727,0,0,1,.4808-0.90585c0.2736-.37622.60147-0.713,0.91229-1.07387l0.20737,0.30329,0.64183-1.14694-0.10693-.0927-1.77375,1.03194a1.5549,1.5549,0,0,1,.10364-1.06984c0.09081-.16339.45922-0.16261,0.57124-0.32589,0.384-.55981.71-1.15947,1.05972-1.74626a1.27013,1.27013,0,0,1,.01664.471c-0.16663.44459-.37325,0.87419-0.63667,1.47388a6.73769,6.73769,0,0,0,1.72819-1.029c0.63614-.75027,1.50474-1.50023,1.01828-2.71206a5.377,5.377,0,0,1-.17867-0.68686,4.26383,4.26383,0,0,0-.861.3786,1.43133,1.43133,0,0,0-.29661.54085l-0.67248-.48295-0.03219,1.07872,1.68736-.32214-1.09224,1.218c-0.28135-.74919-0.44884.06108-0.69418,0.09064L50.5706,66.94966l-0.16165-.01673-0.38738,2.27593-0.15441.0099-0.10188-1.26633c-0.56336.69358-1.00369,1.27143-1.48729,1.81046a2.32734,2.32734,0,0,1-.64334.36368c-0.0322-.21808-0.07179-0.43537-0.09514-0.65439a0.95128,0.95128,0,0,1,.7138-0.95117,1.51765,1.51765,0,0,0,.76618-0.68857c-0.21005-1.02815.74356-1.28235,1.19913-1.74461a2.18413,2.18413,0,0,0,.763-2.12594,0.97893,0.97893,0,0,1,.06459-0.48643c0.06328-.2553.14542-0.50593,0.25671-0.885L50.05518,64.358l0.56349,0.264-0.48247.8507c-0.54827-.69054-1.18743-0.59459-1.44864.21247-0.26422.81635-.42561,1.666-0.62434,2.46988l-1.43254-1.29139a1.49226,1.49226,0,0,0-.24047-1.00544c-0.3755-.48392-0.85153-0.88892-1.24185-1.36289a1.144,1.144,0,0,1-.03476-0.5669,1.19911,1.19911,0,0,1,.44333.18754,1.21254,1.21254,0,0,0,1.83845-.21471c0.2474-.66112.93119-1.19956,0.64058-2.0365a0.55237,0.55237,0,0,1,.09794-0.26438l0.16968,0.00989,0.14262,2.25864,0.69006-.98853,0.148,0.086-0.03214,1.0773a0.97707,0.97707,0,0,0,.5621-0.7435,0.53115,0.53115,0,0,1,.47469-0.80718,0.9461,0.9461,0,0,0,.824-1.219,4.68993,4.68993,0,0,1,.02341-0.62379c0.72944,0.45862.53269-.357,0.77218-0.6728l0.06873,1.52343c0.7347-.27149.858-0.99134,0.6585-3.25639l-1.2707.41067c-0.00625.20941,0.00448,0.534-.03071,0.85361-0.04269.38771-.12414,0.77114-0.18882,1.15642l-0.44341-1.55039-1.7948,1.05663-0.17739-.1255c1.196-1.03035,2.74968-1.88212,2.02929-3.9555l-0.593.70139-0.16877-.71033a1.92162,1.92162,0,0,0-1.3991,2.23216l-0.26187.02722L47.989,57.02842l-0.14232.014-0.13343.56211c-0.65131-.93133.152-1.26651,0.64212-1.83484l-1.4521-.37511-0.0567-.23472,1.3114-.74247c-1.23974-.27648-1.23974-0.27648-1.33391-0.65575l1.78565-1.156c-0.11846.56719,0.14189,0.82688,0.79752,0.6658a1.46148,1.46148,0,0,1,.55519-0.0602,0.732,0.732,0,0,1,.43772.24208,0.39464,0.39464,0,0,1-.0565.38778,0.62572,0.62572,0,0,1-.45046.00489,0.70829,0.70829,0,0,0-1.05154.57854l1.67-.12064,0.07462,0.34146-1.75152.43047,0.20358,0.83976c0.38924-.19976.688-0.35151,0.98539-0.506a1.04382,1.04382,0,0,0,.82659-1.18232,7.33123,7.33123,0,0,1,.02532-1.464l0.23759,0.175a2.40043,2.40043,0,0,0,1.12682-.538c0.14495-.62689.61265-1.44427-0.17185-1.78273l0.7477-2.26094c-1.05833-.01789-1.34989,1.32792-2.5941.7733L52.582,47.61059c-0.60187-.20857-1.18545-0.63557-1.42325.31361-0.68356-.10418-1.307-0.22566-1.936-0.27057a0.64759,0.64759,0,0,0-.35747.46431c-0.09359.81137-.14268,1.62842-0.18945,2.44448-0.03343.58331-.038,1.16827-0.0554,1.75249-1.031-1.024-1.057-1.63889-.34766-2.50064l-0.377-.5054-0.62323.08844,0.40141-1.1902-1.1552.11558L46.4413,48.133l0.83805-.45437c-0.683-1.49567-.7-1.59808-0.32931-2.22538,0.32532,0.53161.464,1.26625,1.41754,1.16911,0.01544-.51756.00448-1.05856,0.05959-1.59274a2.90721,2.90721,0,0,1,.27739-0.72181l0.17009,1.442L50.2575,45.237l0.13758,0.17385L48.9452,46.91447a2.24407,2.24407,0,0,0,.81348.081c0.72565-.34252,1.46234-0.70735,1.32265-1.72372a3.81853,3.81853,0,0,0,1.50995-.22165,2.30215,2.30215,0,0,0,.23483-1.21569,1.83664,1.83664,0,0,0-1.732,1.44815l-0.02534-1.451a2.03183,2.03183,0,0,0,.69925.01042c1.10337-.50712,1.17531-1.42408.89127-2.59867-0.76773.35372-1.50486,0.71615-2.26189,1.03065a5.00321,5.00321,0,0,1-.94947.198q0.90613-.59309,1.81111-1.18758a6.213,6.213,0,0,0,.85564-0.55623,0.5698,0.5698,0,0,0,.04188-0.49712,0.43989,0.43989,0,0,0-.3564-0.23339,0.53307,0.53307,0,0,0-.37453.29421A7.34411,7.34411,0,0,0,51.27428,41.30168ZM69.83063,36.642L69.38544,33.8609c-0.45828.53443-1.18217,0.80385-1.11448,1.70369a20.80654,20.80654,0,0,1-.04878,2.0919L69.844,36.62638c-0.30257.39521-.5893,0.804-0.91241,1.18161-0.28843.33711-.61706,0.63983-1.06018,1.09293l1.72888,0.223-0.02415.1818-1.57025.27275,0.30371,1.19227-0.68082,1.92921,0.85309-.46463a10.04651,10.04651,0,0,0-.94062,4.48008l1.39113-.71792,0.26747,0.28036-1.23117,1.88294,1.15762-.22a4.4943,4.4943,0,0,1-.69669.65908,17.1235,17.1235,0,0,0-1.237,1.50464,5.63283,5.63283,0,0,1-.30618.72946c-0.69663.65807-1.44633,1.2596-2.15887,1.90152a0.78837,0.78837,0,0,0-.27671.49489c0.3368,0.47156-.10054.52475-0.32956,0.694l-0.03273-.48251-2.18565,2.07855a2.10479,2.10479,0,0,0,2.24016-1.4627c0.10188,0.6248.51927,0.24282,0.692,0.14346a8.7501,8.7501,0,0,0,1.08957-.85574l-0.0115-.01431L66.709,53.92057a13.18532,13.18532,0,0,1-1.556.73849c-0.81469.26436-.864,0.79186-0.66161,1.63672,0.40383-.29465.738-0.50041,1.02774-0.7564a12.69581,12.69581,0,0,0,2.99411-4.20472,11.98385,11.98385,0,0,0,.9829-2.44431,29.94658,29.94658,0,0,0,.44663-3.54261,2.78932,2.78932,0,0,0-.55633-2.26342c0.65868-.58.65868-0.58,0.6767-2.69119-0.31095.25347-.59156,0.48219-0.872,0.71055,0.02372-.46814-0.30247-0.52286-0.6511-0.55106l1.49542-1.20873C69.97231,38.5105,69.90159,37.57617,69.83063,36.642ZM40.15,87.06769c0.3745-.94833.76884-1.86682,2.21984-1.3325a1.42482,1.42482,0,0,0-.54377-0.7809,0.83209,0.83209,0,0,0-.63469.27151,7.20348,7.20348,0,0,0-.98422,1.1399,1.50535,1.50535,0,0,0-.04174.69L39.65226,88.181a5.48073,5.48073,0,0,0,1.38088.0873,4.30686,4.30686,0,0,0,1.08941-.56694L42.3187,87.942l-0.81666.35,0.162,0.19476,1.181-.193a1.84069,1.84069,0,0,1-.19531-0.69063c0.18212-.9159-0.52451-1.12244-1.09555-1.42484-0.63748-.33759-0.71159.3534-1.029,0.60012C40.40029,86.87554,40.27462,86.97179,40.15,87.06769ZM53.71481,28.468l-0.17027-.4864-0.211-.03194L52.9234,29.12054l-0.45278-.35975L52.43827,29.845l-0.15854.0439-0.2691-.54008L50.36791,30.571l1.21755,0.81289L53.064,30.00748l0.17368,0.35626L53.71677,28.445l0.29066,0.56424a1.37619,1.37619,0,0,0,1.16285-1.80077c-0.08024-.61523-0.25924-1.217-0.358-1.83054-0.13958-.8669-0.24587-1.73916-0.36638-2.60913l-0.08095.00021-0.353,1.924-0.42931-.81727L52.956,25.73851l0.29375,0.1298,0.7166-1.10586A8.55625,8.55625,0,0,1,53.71481,28.468Zm9.2216,16.35853a1.35511,1.35511,0,0,0,.38375-0.24328c0.7271-.945.88777-3.79872-0.031-4.67992a1.81708,1.81708,0,0,0,.42354-0.67723c0.08727-1.80988.12655-3.62207,0.18059-5.43354-0.35659,1.73641-.52491,3.50683-0.77969,5.26471-0.24925,1.71971-.58663,3.42665-0.88533,5.1392l0.2676,0.06166,0.43006-.58365c0.01059,0.46928.01849,0.81968,0.02665,1.17046l-0.57685-.36282L61.3749,46.63769l0.264,0.16053ZM52.09,33.7972L51.91641,33.082l-0.39555.62934-0.2024-.04484,0.05306-1.77836-1.1.82211a0.64181,0.64181,0,0,0-.60891-0.17759,6.74778,6.74778,0,0,0-.69964,3.911c0.01922,0.42528.06727,0.84926,0.10508,1.30987l0.66394-.35966-0.17438,1.27586c0.52632-.003.82774-0.855,1.33061-0.2004-0.24125.32188-.96438,0.46312-0.41192,1.0867,0.934-.37513.95779-0.44076,0.39406-1.07538a2.39714,2.39714,0,0,1,.66785-1.01825,1.69206,1.69206,0,0,0,.96465-2.5534,2.88824,2.88824,0,0,1-1.44012.78124,1.525,1.525,0,0,1,.30347-0.57315,1.38255,1.38255,0,0,0,.71515-1.33606l0.31776,0.61662,0.28334-.1854,0.04724-1.58342-0.248-.02844ZM34.32406,28.12211c-0.09659-.55338-0.18166-1.10907-0.292-1.65969a5.43676,5.43676,0,0,0-2.41979-3.14283c-0.11447,2.32943.695,4.40522,0.30884,6.42663l1.54447,0.35095a9.69154,9.69154,0,0,1-.90965.94681,1.26586,1.26586,0,0,0,.14023,2.214c-0.54033.53447-.61467,1.01725,0.14256,1.44387a1.61322,1.61322,0,0,1,.56428.67175,4.08942,4.08942,0,0,1,.1943.93959L32.593,35.764a22.87523,22.87523,0,0,1,.17043,2.5174c-0.06658,1.53521.96832,2.08787,2.13287,2.61679l0.6238-1.09737,0.22876,0.09971-0.26413,1.3188,1.28732-1.15461,0.19048,0.19467c-0.12185.20074-.25483,0.39573-0.36248,0.60382-0.11155.21562-.19857,0.44394-0.30673,0.69042,1.38854,0.24757,2.57915-.44,2.71018-1.43986l3.4435-.20414-0.6741-1.817,0.85489-.12295L42.533,32.12546l-0.94314.01365a2.01284,2.01284,0,0,1,.06945-0.99371,2.06837,2.06837,0,0,1,1.02086.00046l0.17676-5.92426-0.473.74875L42.284,24.82493l-0.7821.1082a0.93072,0.93072,0,0,1,.338-0.58169c0.14425-.12083.31442-0.21072,0.63115-0.41716a3.2999,3.2999,0,0,1-1.051-.14821,1.21584,1.21584,0,0,1-.63025-0.70892c0.11327-.47168.48086-0.39265,0.89188-0.18556,0.71528,0.36038,1.19217.03221,1.22721-.76862,0.04228-.9664.11185-1.93308,0.10875-2.89944a15.8866,15.8866,0,0,0-.19686-1.75442l-0.97631.40365L41.65355,17.645l1.25124-1.2197-1.12494-.43013,0.46213-.997,0.88818-.04482a8.63858,8.63858,0,0,0-1.12949-6.15593c-0.18076.29387-.3733,0.60349-0.56249,0.91514-0.48412.79751-1.26013,1.49909-.82029,2.5998a0.45429,0.45429,0,0,1-.20693.39256c-0.90385.30051-.6068,0.86118-0.38025,1.45907a3.00706,3.00706,0,0,1,.19856,1.09824c-0.04175,2.08437-.12734,4.16782-0.17556,6.25211-0.04112,1.777-.05872,3.55473-0.07453,5.33223-0.02288,2.571-.03458,5.14216-0.05547,7.71321a0.28923,0.28923,0,0,1-.10542.05109l-0.065-.509-0.63944,2.13205-0.62744.13367,0.39988,0.88137c-1.95792,1.05393-2.84514-.37691-3.74987-1.86924l-0.11736.62069-0.26079.00885q-0.22239-3.95271-.4446-7.90462c0.67688,0.75391.40164,1.662,0.42,2.52728,0.02258,1.063.077,2.12524,0.11772,3.18782l0.23642-.01152c0.007-.23584.02612-0.472,0.01909-0.70746-0.03662-1.22688-.08825-2.45336-0.11792-3.68039-0.02015-.83342.01692-1.66915-0.02873-2.5007a1.18983,1.18983,0,0,0-.72831-1.34477C34.11064,26.47292,34.86649,27.2877,34.32406,28.12211ZM54.13889,45.14945l-0.02621.87843-0.4147-.59374-0.22336.08186a4.11111,4.11111,0,0,0,.28025.863,0.53854,0.53854,0,0,0,.498.07675,1.28827,1.28827,0,0,0,.2768-0.68344c0.12-2.01064.21056-4.023,0.32118-6.03424,0.01633-.29688.0915-0.59053,0.15987-1.01131l-0.22457-.14654a3.14346,3.14346,0,0,0,.37025-1.15588,1.07831,1.07831,0,0,0-.66043-0.68083,3.1709,3.1709,0,0,0-.85969.764c0.58653,0.53344.03231,1.02017-.034,1.53627a2.601,2.601,0,0,0,.27384.76969,1.485,1.485,0,0,1,.05829.68871,11.07835,11.07835,0,0,0-.42375,1.34348c-0.0896.84613-.06926,1.7039-0.10032,2.74485l0.71529-.89027c0.47619,0.677-.1169.98074-0.47887,1.45758ZM49.24053,83.20351c0.95734-1.32573,1.92781-2.57809,2.78624-3.90305a8.41386,8.41386,0,0,0,.66614-1.85512L52.47766,77.362l-0.67667.87726-0.45845-.69372c-0.45063.67339-.81938,1.22433-1.188,1.77537a0.76023,0.76023,0,0,1-.142.20781,3.67718,3.67718,0,0,0-1.22867,3.30175A1.38573,1.38573,0,0,0,49.24053,83.20351ZM48.46183,15.624l0.681,7.75385,0.21249-.00124,0.23079-.92668,0.53319-.00787c0.01463-.49048.049-0.93666,0.03517-1.38135-0.01315-.42389-0.12155-0.848-0.10481-1.26871,0.01612-.405.39732-0.89839-0.39247-1.02809l-0.1949.546-0.15-.01493-0.05756-.97089c0.67629-.059.81663-0.91384,0.27577-1.887l-0.246.67167C49.08479,16.49384,49.41018,15.73447,48.46183,15.624ZM52.102,74.28175c-1.53044.36421-1.63273,2.53514-3.44259,2.56887l0.20155,2.53386,0.22374,0.0827c0.63756-1.521,2.81745-2.06031,2.48418-4.20587C52.21708,75.15559,52.25191,75.08805,52.102,74.28175Zm2.94429,10.93519,0.09143-3.06419-0.3118-.08865a1.98794,1.98794,0,0,0-.5683.81813c0.0551,1.4236.20708,2.84345,0.33111,4.33066l1.91506-.11777C56.20067,85.28974,55.99,84.99972,55.04628,85.21693Zm0.81527-36.322L56.549,50.27713l-0.23264,1.07166,0.29106,0.13063a4.115,4.115,0,0,0,.62608-0.741c0.46675-.92136.5387-0.94242,1.22378-0.07086l0.5803-1.07329-2.615-1.12732ZM66.419,44.02856a3.50163,3.50163,0,0,0-1.26829,3.981,6.57628,6.57628,0,0,0,1.05509-1.36218,4.03372,4.03372,0,0,0,.05092-1.41159l-0.11555.02823Zm0.62415-8.18064A1.72362,1.72362,0,0,0,65.896,37.69014a1.57763,1.57763,0,0,1-.99645,1.67482,1.46442,1.46442,0,0,0,.59838.116c0.30008,0.02394.59914,0.06061,0.89864,0.09187l-0.2493-.82462A3.10523,3.10523,0,0,0,67.0432,35.84792ZM56.50657,59.88781c0.501,0.12848.797-.04766,0.81993-0.67442,0.02195-.59961.107-1.1969,0.16406-1.7921-0.93079-.14344-1.66529,1.33267-2.72293.29091a0.60646,0.60646,0,0,0,.38014.41977c0.60854,0.08561.6573,0.4089,0.46252,0.89672a3.94778,3.94778,0,0,0-.11306.66283l1.37661-.98693,0.20492,0.163Zm0.91021-7.041L57.266,52.75558l0.44763-1.05539a15.5816,15.5816,0,0,0-1.26836.90835,1.33355,1.33355,0,0,0-.18558.60121l0.21439,0.0406,0.23365-.494c0.872,0.98679-.15509,1.89388-0.09913,2.874,1.04859-.74228,1.74939-1.75852,1.22988-3.08481ZM51.32164,72.27011a3.14279,3.14279,0,0,0-2.22122,2.34183,0.49963,0.49963,0,0,0,.17675.34516,0.73513,0.73513,0,0,0,.49523-0.20324c0.217-.3714.34034-0.74672,0.93465-0.58132a0.83414,0.83414,0,0,0,.639-0.49895A6.34233,6.34233,0,0,0,51.32164,72.27011Zm3.49025,0.28311c0.10906,0.09694.14483,0.1367,0.18789,0.16566,0.216,0.14531.434,0.28778,0.65122,0.43125l0.13442-.217-0.55783-.202-0.067-3.64252-0.29434-.0223-0.36959.64315,0.50114,0.22977a7.327,7.327,0,0,0-.68193,1.3973,7.86294,7.86294,0,0,0-.071,1.58831ZM50.47012,13.11885l-0.15036-.00239,0.36917,3.54943,0.18729-.01985L50.56,17.395a1.76088,1.76088,0,0,0,.9052-2.00658l-0.52743-.01574a2.36707,2.36707,0,0,0,.37319-1.09475A4.33087,4.33087,0,0,0,50.47012,13.11885Zm3.609,68.665a0.86447,0.86447,0,0,0,1.07145-.84889c0.03585-.73948-0.04552-1.48463-0.07818-2.26848C53.51409,79.35278,54.40437,80.72228,54.07909,81.78385ZM53.80423,36.20143a1.07786,1.07786,0,0,0,1.0968-1.55176c-0.0882-.31376-0.15441-0.6337-0.23066-0.95082a0.91359,0.91359,0,0,0-.82831.935C53.87149,35.12943,53.82129,35.62973,53.80423,36.20143Zm9.14138,12.48275L63.33108,49.191c1.28014-.46251,1.30614-1.36381,1.08037-3.03339ZM51.259,57.98238l0.35613,0.11028a4.99246,4.99246,0,0,0,.53856-0.95338,2.50162,2.50162,0,0,0,.06186-1.04049,2.15715,2.15715,0,0,0-.33448-0.65092,1.59911,1.59911,0,0,0-.53855.57648A18.44541,18.44541,0,0,0,51.259,57.98238ZM51.45614,9.04284c-1.12844.598-1.28828,1.23974-.55393,2.224C51.98119,10.609,51.99659,10.54717,51.45614,9.04284Zm6.89113,45.731,0.40286,0.2737A2.3421,2.3421,0,0,0,59.2594,54.328c0.168-.76806.24866-1.5552,0.3636-2.33486l-0.13921-.07667-1.03747,1.15192,0.14034,0.15054,0.64952-.08625ZM55.4917,20.09365l-0.21443-.03231a2.78192,2.78192,0,0,0-.4965,1.25261,2.44994,2.44994,0,0,1,.19336,1.71471,1.24937,1.24937,0,0,0,.41681.442ZM45.73737,88.55377l-4.34184.47023,0.03232,0.26533C42.88586,89.21621,44.37006,89.35437,45.73737,88.55377Zm8.513-10.08776c1.30048-.53442.617-1.59806,0.91769-2.42359C54.29488,76.231,54.12337,76.72834,54.25037,78.466Zm-2.6319-7.32832c1.48214-.2223,1.99319-0.63753,1.779-1.4497A1.77866,1.77866,0,0,0,51.61847,71.13769Zm1.5136-19.19549c1.07805-.33365,1.25162-0.76124.94139-2.11984C53.001,50.18261,53.38122,51.13467,53.13207,51.9422Zm1.83938-21.30544-0.30693-.00551c-0.7748,1.53475-.766,1.59351.36965,2.04158Zm-22.44893-7.5435-0.18858.1957,2.11689,1.84641C34.17514,23.79587,33.49478,23.128,32.52252,23.09326Zm-5.86858,66.626a1.48624,1.48624,0,0,0,1.71791.94132,1.64288,1.64288,0,0,0,.48192-0.32116,1.28959,1.28959,0,0,0-.43932-0.39308C27.87175,89.83769,27.31516,89.79837,26.65394,89.71923ZM53.72551,60.4567a3.857,3.857,0,0,0,.36553-2.8895l-0.65763.39814ZM59.414,58.31959c1.31649-.2308,2.254-1.15963,2.05739-2.12524Zm7.20892-18.04471c-1.12072.011-1.5085,0.70851-1.12141,2.07842ZM54.20673,88.504a2.76558,2.76558,0,0,1,1.47541-.024c0.607,0.48963.95747,0.14479,1.49578-.03375A2.4439,2.4439,0,0,0,54.20673,88.504Zm1.02646-43.0098-0.17619.00763-0.06687,2.24111,0.88956-.19517L55.7155,46.455l-0.39653.07438ZM49.134,11.031l-0.78975.53729,0.0512,2.21094,0.25645,0.076a5.20727,5.20727,0,0,0,.1863-0.68026c0.06671-.48012.094-0.96562,0.15466-1.44673C49.0246,11.47683,49.09271,11.23,49.134,11.031Zm5.69022,8.83509c0.339-.72318.75417-1.34738,0.16612-2.061C54.35928,18.28991,54.30276,18.92194,54.82425,19.86606ZM70.54351,46.10718l0.1814-.03908,0.10365-3.474-0.18014-.00323ZM55.21694,73.24155c-0.37573.74541-1.02328,1.23018-.45652,1.98415l1.29138-.54133C54.76148,74.68888,55.33827,73.923,55.21694,73.24155ZM39.80311,14.79462l-0.15729.0214L39.551,17.99459l0.1567-.00165ZM53.76882,85.436l-0.31371-.0306-0.36618,1.77315,0.86538-.15787Zm8.65525-32.70134a1.81756,1.81756,0,0,0,1.74721-1.75233Zm6.08381-18.91077c0.56383-.49938.41519-0.90226-0.63513-1.27107l0.0128,0.91532ZM52.83825,8.49893c-0.33616,1.12253-.07667,1.57864.90088,1.74992a2.82546,2.82546,0,0,1-.37119-0.37974C53.91728,9.10976,53.05483,8.98835,52.83825,8.49893Zm1.74355,55.03362-0.276-.17386-0.8506,1.52452A1.05236,1.05236,0,0,0,54.58181,63.53255ZM58.35144,90.465c-1.48848-.22421-1.92466-0.05812-2.1177.75625ZM62.40949,57.0687c1.397-.37773,1.70141-0.6674,1.4504-1.6413Zm-6.677-7.06371-0.51859.336,0.265-1.1c-1.026.406-.60988,1.09118-0.55672,1.70049C54.968,50.43573,56.04424,50.89146,55.73245,50.005Zm-1.51221-2.10363-0.194-.14132a1.81031,1.81031,0,0,0-.62209.5779,3.42682,3.42682,0,0,0,.57457.96054l0.2031-.10926Zm5.20816,8.39021c0.80193,0.48829,1.06543.33434,1.702-.872ZM50.036,9.11613l0.2825,0.07065,0.852-.87771L51.103,7.96677c-0.47725.73715-.72364,0.2831-1.15568-0.2118Zm2.6055,28.776a2.1993,2.1993,0,0,0-.81673.19487,2.92862,2.92862,0,0,0-.50313.82633C52.54112,38.63228,52.54112,38.63228,52.64148,37.89211ZM59.8967,90.80659L59.9346,91.127l1.7329-.4201-0.08778-.35368ZM52.31934,53.11736L52.05479,52.873a6.46692,6.46692,0,0,0-.53331.81894,0.54114,0.54114,0,0,0,.12262.44691,0.4408,0.4408,0,0,0,.38488.12149,0.47518,0.47518,0,0,0,.19866-0.33167C52.27955,53.66238,52.2912,53.38826,52.31934,53.11736Zm0.77911,18.73533-0.84008,1.20679C52.91785,72.93769,53.54959,72.80577,53.09846,71.85269Zm-0.12-19.21191,0.38264,0.53289,0.501-.25609,0.2691-.9532ZM49.44957,7.66146l0.22457,0.10422,0.76453-.78185L49.4064,6.56631Zm10.66931,47.0207L60.19645,54.876a1.71465,1.71465,0,0,0,1.558-.65883l-0.09389-.21675ZM52.09052,11.94805l-0.20043-.102-0.7036.72112,0.08525,0.19229a1.58521,1.58521,0,0,0,.77259-0.08732A1.35665,1.35665,0,0,0,52.09052,11.94805Zm7.0168,45.37668-0.275-.12846-0.80489,1.60051,0.30641,0.147ZM52.87839,27.41364l0.39025,0.142,0.41948-1.192-0.38345-.13951ZM66.92357,41.61493l-0.35241,2.02C67.20667,43.07262,66.92871,42.31247,66.92357,41.61493ZM53.64833,62.62121l0.38235,0.08453L54.167,61.4202,53.824,61.36825ZM54.363,16.03073l0.41526-.06419L54.52081,14.564l-0.32242.06042Z"/><path d="M57.23348,66.71916L60.14,66.54543C58.93182,67.40842,57.60894,67.497,57.23348,66.71916Z"/><path d="M61.47841,41.06684l-2.46111.39772A1.711,1.711,0,0,1,61.47841,41.06684Z"/><path d="M54.75875,8.4666A4.23948,4.23948,0,0,1,57.00931,7.03l0.144,0.21746L54.91616,8.687Z"/><path d="M57.37523,65.1428l2.22606-.15151C58.59,65.76292,57.8676,65.79494,57.37523,65.1428Z"/><path d="M38.12038,16.85125l-1.77386.76178-0.13-.26978L37.9718,16.478Z"/><path d="M60.35258,32.85757L62.24966,33.145l-0.04632.32688-1.89719-.28518Z"/><path d="M42.13569,61.3493l-0.41814-1.55742,0.23385-.086,0.30725,0.36148,0.17912-1.80744L42.84,58.32568q-0.25533,1.45818-.51081,2.91642Z"/><path d="M65.92466,53.34537a1.72336,1.72336,0,0,1,.85841-1.17665,1.34655,1.34655,0,0,1,.79207-0.18288c-0.601.41408-.59458,1.5441-1.66169,1.34547Z"/><text x="0" y="115" fill="#000000" font-size="5px" font-weight="bold" font-family="'Helvetica Neue', Helvetica, Arial-Unicode, Arial, Sans-serif">Created by Olga</text><text x="0" y="120" fill="#000000" font-size="5px" font-weight="bold" font-family="'Helvetica Neue', Helvetica, Arial-Unicode, Arial, Sans-serif">from the Noun Project</text></svg>